<svg width="1480" height="1480" version="1.1" xmlns="http://www.w3.org/2000/svg" desc="Created with imagetracer.js version 1.2.6" ><path fill="rgb(0,0,0)" stroke="rgb(0,0,0)" stroke-width="0" opacity="0" d="M 0 0 L 1480 0 L 1480 1480 L 0 1480 L 0 0 Z M 1020 184 Q 1008 186 1001 191 L 957 218 L 945 234 Q 941 242 941 254 L 901 254 L 895 257 L 889 266 L 889 273 L 893 280 L 902 284 L 941 284 L 941 336 Q 943 337 942 342 Q 947 363 959 377 L 972 388 L 992 400 L 1009 407 L 1020 408 L 1021 409 Q 1041 410 1055 404 L 1086 386 Q 1099 375 1107 359 L 1112 344 L 1113 328 L 1114 327 L 1114 255 L 1111 238 L 1104 225 L 1092 213 L 1046 187 L 1035 184 L 1020 184 Z M 1020 434 L 1019 435 L 1011 435 L 996 438 L 975 447 L 755 447 L 747 451 Q 741 456 739 464 L 739 629 L 738 630 L 685 647 Q 678 651 676 661 Q 675 671 680 676 L 690 682 L 739 682 Q 737 695 742 702 Q 746 709 756 711 L 868 711 L 867 731 L 866 732 L 866 743 L 865 744 L 863 797 L 862 798 L 861 889 L 860 890 L 860 1268 L 862 1278 L 866 1285 Q 873 1293 886 1296 Q 902 1297 910 1289 L 918 1277 L 927 1235 L 931 1222 L 931 1218 L 934 1209 L 934 1205 L 937 1196 L 937 1192 L 940 1183 L 940 1179 L 943 1170 L 943 1166 L 946 1157 L 946 1153 L 949 1144 L 949 1140 L 952 1131 L 952 1127 L 955 1118 L 955 1114 L 965 1075 L 965 1071 L 968 1062 L 968 1058 L 971 1049 L 971 1045 L 974 1036 L 974 1032 L 977 1023 L 977 1019 L 980 1010 L 980 1006 L 993 954 L 993 950 L 996 941 L 996 937 L 1001 919 L 1004 914 Q 1011 903 1026 900 Q 1042 900 1050 908 Q 1057 914 1060 926 L 1070 973 L 1093 1068 L 1093 1072 L 1106 1124 L 1106 1128 L 1129 1223 L 1129 1227 L 1139 1266 L 1139 1270 Q 1141 1280 1147 1287 L 1156 1293 L 1167 1296 L 1180 1295 L 1191 1289 Q 1197 1283 1200 1274 L 1200 848 L 1199 847 L 1199 801 L 1195 784 L 1187 771 L 1172 758 L 1158 754 L 1158 752 L 1148 752 L 1147 753 L 1118 753 L 1106 748 Q 1100 744 1097 737 Q 1095 725 1100 720 Q 1105 713 1114 711 L 1228 711 Q 1246 708 1257 698 Q 1267 690 1272 677 L 1275 667 L 1275 659 L 1276 658 L 1274 641 L 1264 621 L 1152 506 L 1108 461 L 1088 447 L 1075 441 L 1057 436 L 1043 435 L 1042 434 L 1020 434 Z M 326 768 L 318 771 Q 310 775 308 785 L 308 1032 L 221 1032 L 213 1036 Q 206 1041 204 1051 L 204 1279 L 207 1287 L 215 1294 L 225 1297 L 496 1297 L 496 1295 L 773 1295 L 779 1292 Q 785 1288 787 1280 L 787 1048 L 783 1040 Q 779 1034 772 1032 L 600 1032 L 600 786 L 596 777 Q 592 770 583 768 L 326 768 Z " /><path fill="rgb(235,238,241)" stroke="rgb(235,238,241)" stroke-width="0" opacity="0.9882352941176471" d="M 1002.5 278 L 1057.5 278 L 1058.5 279 L 1072.5 279 L 1073.5 280 L 1093.5 281 L 1094.5 282 L 1101.5 282 L 1113 284 L 1113 334.5 L 1111 345.5 Q 1103.8 370.8 1085.5 385 L 1055.5 403 L 1037.5 408 L 1016.5 408 Q 981.6 398.9 960 376.5 Q 948.2 363.3 943 343.5 L 942 328.5 L 941 327.5 L 941 285 L 957.5 282 L 964.5 282 L 965.5 281 L 985.5 280 L 986.5 279 L 1001.5 279 L 1002.5 278 Z " /><path fill="rgb(235,238,241)" stroke="rgb(235,238,241)" stroke-width="0" opacity="0.9882352941176471" d="M 1024.5 434 L 1037.5 434 L 1038.5 435 L 1048.5 435 L 1059.5 437 L 1070.5 440 L 1088.5 448 L 1104.5 459 L 1153 507.5 L 1264 621.5 L 1273 638.5 L 1275 647.5 L 1275 662.5 Q 1271 686 1255.5 698 Q 1245.7 706.7 1230.5 710 L 1222.5 710 L 1221.5 711 L 1112.5 711 Q 1104.5 713 1100.5 719 L 1105.5 713 L 1109 711.5 L 1014.5 711 L 1000.5 708 L 991 699.5 Q 985.2 693.8 987 680.5 Q 989.8 670.3 997.5 665 L 1007.5 661 L 1024.5 660 L 1031.5 658 L 1040.5 658 L 1041.5 657 L 1061.5 656 L 1062.5 655 L 1071.5 655 L 1072.5 654 L 1081.5 654 L 1082.5 653 L 1091.5 653 L 1102.5 651 L 1132.5 649 L 1144 647 L 1034 468.5 L 1028 456.5 L 1021.5 450 L 1015.5 447 L 976 446.5 L 993.5 439 L 1012.5 435 L 1023.5 435 L 1024.5 434 Z " /><path fill="rgb(235,238,241)" stroke="rgb(235,238,241)" stroke-width="0" opacity="0.9882352941176471" d="M 737.5 630 L 739 630.5 L 739 682 L 691.5 682 Q 684.1 679.9 680 674.5 Q 675.3 669.7 677 658.5 Q 679.6 651.1 685.5 647 L 737.5 630 Z " /><path fill="rgb(235,238,241)" stroke="rgb(235,238,241)" stroke-width="0" opacity="0.9882352941176471" d="M 862.5 804 L 863 810.5 L 862 810.5 L 862.5 804 Z " /><path fill="rgb(235,238,241)" stroke="rgb(235,238,241)" stroke-width="0" opacity="0.9882352941176471" d="M 1198.5 813 L 1199 826.5 L 1198 826.5 L 1198.5 813 Z " /><path fill="rgb(235,238,241)" stroke="rgb(235,238,241)" stroke-width="0" opacity="0.9882352941176471" d="M 1199.5 857 L 1200 867.5 L 1199 867.5 L 1199.5 857 Z " /><path fill="rgb(235,238,241)" stroke="rgb(235,238,241)" stroke-width="0" opacity="0.9882352941176471" d="M 887.5 1295 L 893 1295.5 L 887.5 1296 L 887.5 1295 Z " /><path fill="rgb(9,129,108)" stroke="rgb(9,129,108)" stroke-width="0" opacity="0.9921568627450981" d="M 900.5 254 L 941 254 L 941 284 L 901.5 284 L 893 280 L 889 272.5 L 889 265.5 L 894.5 257 L 900.5 254 Z " /><path fill="rgb(9,129,108)" stroke="rgb(9,129,108)" stroke-width="0" opacity="0.9921568627450981" d="M 843 447 L 927 447 L 927 511.5 L 921.5 520 L 915.5 523 L 854.5 523 L 846 517.5 L 843 511.5 L 843 447 Z " /><path fill="rgb(9,129,108)" stroke="rgb(9,129,108)" stroke-width="0" opacity="0.9921568627450981" d="M 412 768 L 494.5 768 L 496 769.5 L 496 829.5 L 494 836.5 L 488.5 842 L 481.5 844 L 425.5 844 L 417.5 841 L 415 838.5 L 412 832.5 L 412 768 Z " /><path fill="rgb(9,129,108)" stroke="rgb(9,129,108)" stroke-width="0" opacity="0.9921568627450981" d="M 220.5 1032 L 309 1032 L 309 1093.5 Q 310.2 1101.3 315.5 1105 L 319.5 1107 L 381.5 1107 L 390 1100.5 L 392 1096.5 L 392 1032 L 494.5 1032 L 496 1033.5 L 496 1297 L 224.5 1297 L 214.5 1294 L 207 1286.5 L 204 1278.5 L 204 1050.5 Q 205.8 1040.8 212.5 1036 L 220.5 1032 Z " /><path fill="rgb(9,129,108)" stroke="rgb(9,129,108)" stroke-width="0" opacity="0.9921568627450981" d="M 599 1032 L 683 1032 L 683 1095.5 Q 681.5 1102 676.5 1105 L 672.5 1107 L 609.5 1107 L 601 1100.5 L 599 1095.5 L 599 1032 Z " /><path fill="rgb(79,189,159)" stroke="rgb(79,189,159)" stroke-width="0" opacity="0.996078431372549" d="M 1023.5 184 Q 1043.2 183.8 1054.5 192 L 1094.5 216 L 1104 225.5 Q 1110.6 234.4 1113 247.5 L 1113 283.5 L 1111.5 283 L 1080.5 280 L 1079.5 279 L 1066.5 279 L 1065.5 278 L 1018.5 277 L 1017.5 278 L 980.5 279 L 979.5 280 L 970.5 280 L 969.5 281 L 961.5 281 L 960.5 282 L 941 284 L 941 250.5 L 943 240.5 Q 947.6 225.6 958.5 217 L 1001.5 191 L 1016.5 185 Q 1022 186.5 1023.5 184 Z " /><path fill="rgb(79,189,159)" stroke="rgb(79,189,159)" stroke-width="0" opacity="0.996078431372549" d="M 754.5 447 L 843 447 L 843 511.5 L 848.5 520 L 854.5 523 L 915.5 523 L 924 517.5 L 927 511.5 L 927 447 L 1013.5 447 Q 1021.3 449.3 1026 454.5 L 1030 462.5 L 1030 659 L 1005.5 661 Q 996.3 663.8 991 670.5 Q 985.7 676.7 986 688.5 Q 988.2 700.3 996.5 706 L 1007 710.5 L 755.5 711 Q 746.4 708.5 742 701.5 Q 737.5 695 739 682.5 L 740 681.5 L 740 630.5 L 739 629.5 L 739 463.5 L 746 451 L 754.5 447 Z " /><path fill="rgb(79,189,159)" stroke="rgb(79,189,159)" stroke-width="0" opacity="0.996078431372549" d="M 326.5 768 L 412 768 L 412 832.5 L 417.5 841 L 425.5 844 L 481.5 844 L 488.5 842 L 494 836.5 L 496 829.5 L 496 769.5 L 495.5 768 L 581.5 768 Q 591.2 769.8 596 776.5 L 600 785.5 L 600 1031.5 L 599 1032.5 L 599 1095.5 Q 600.5 1102 605.5 1105 L 609.5 1107 L 672.5 1107 L 681 1100.5 L 683 1095.5 L 683 1032 L 770.5 1032 L 782 1038.5 L 787 1048.5 L 787 1279.5 Q 784.9 1286.9 779.5 1291 L 772.5 1295 L 496 1295 L 496 1033.5 L 494.5 1032 L 392 1032 L 392 1096.5 L 385.5 1105 L 381.5 1107 L 319.5 1107 L 312 1101.5 L 309 1093.5 L 309 1032.5 L 308 1031.5 L 308 784.5 Q 310.4 775.4 317.5 771 L 326.5 768 Z " /><path fill="rgb(212,224,225)" stroke="rgb(212,224,225)" stroke-width="0" opacity="0.2627450980392157" d="M 1060.5 195 L 1064 197.5 L 1062.5 197 L 1060.5 195 Z " /><path fill="rgb(212,224,225)" stroke="rgb(212,224,225)" stroke-width="0" opacity="0.2627450980392157" d="M 1072.5 202 L 1076 204.5 L 1074.5 204 L 1072.5 202 Z " /><path fill="rgb(212,224,225)" stroke="rgb(212,224,225)" stroke-width="0" opacity="0.2627450980392157" d="M 1084.5 209 L 1088 211.5 L 1086.5 211 L 1084.5 209 Z " /><path fill="rgb(212,224,225)" stroke="rgb(212,224,225)" stroke-width="0" opacity="0.2627450980392157" d="M 1089.5 212 L 1094 215.5 L 1091.5 214 L 1089.5 212 Z " /><path fill="rgb(212,224,225)" stroke="rgb(212,224,225)" stroke-width="0" opacity="0.2627450980392157" d="M 947.5 230 L 947 231.5 L 945.5 235 L 945 233.5 L 947.5 230 Z " /><path fill="rgb(212,224,225)" stroke="rgb(212,224,225)" stroke-width="0" opacity="0.2627450980392157" d="M 1113.5 254 L 1114 326.5 L 1113 326.5 L 1113.5 254 Z " /><path fill="rgb(212,224,225)" stroke="rgb(212,224,225)" stroke-width="0" opacity="0.2627450980392157" d="M 941.5 328 L 942 335.5 L 941 335.5 L 941.5 328 Z " /><path fill="rgb(212,224,225)" stroke="rgb(212,224,225)" stroke-width="0" opacity="0.2627450980392157" d="M 947.5 356 L 952 364.5 L 950 363.5 L 947.5 356 Z " /><path fill="rgb(212,224,225)" stroke="rgb(212,224,225)" stroke-width="0" opacity="0.2627450980392157" d="M 1106.5 357 L 1107 358.5 L 1102.5 366 L 1103 364.5 L 1106.5 357 Z " /><path fill="rgb(212,224,225)" stroke="rgb(212,224,225)" stroke-width="0" opacity="0.2627450980392157" d="M 952.5 366 L 956 370.5 L 953 368.5 L 952.5 366 Z " /><path fill="rgb(212,224,225)" stroke="rgb(212,224,225)" stroke-width="0" opacity="0.2627450980392157" d="M 956.5 372 L 966.5 383 L 977 390.5 L 975.5 390 Q 965.8 384.8 959 376.5 L 956.5 372 Z " /><path fill="rgb(212,224,225)" stroke="rgb(212,224,225)" stroke-width="0" opacity="0.2627450980392157" d="M 1096.5 374 L 1085.5 386 L 1076.5 392 L 1077.5 390 Q 1089 384 1096.5 374 Z " /><path fill="rgb(212,224,225)" stroke="rgb(212,224,225)" stroke-width="0" opacity="0.2627450980392157" d="M 1074.5 392 L 1073.5 394 L 1069.5 396 L 1070.5 394 L 1074.5 392 Z " /><path fill="rgb(212,224,225)" stroke="rgb(212,224,225)" stroke-width="0" opacity="0.2627450980392157" d="M 983.5 394 L 987 396.5 L 985.5 396 L 983.5 394 Z " /><path fill="rgb(212,224,225)" stroke="rgb(212,224,225)" stroke-width="0" opacity="0.2627450980392157" d="M 1067.5 396 L 1066.5 398 L 1064.5 399 L 1065.5 397 L 1067.5 396 Z " /><path fill="rgb(212,224,225)" stroke="rgb(212,224,225)" stroke-width="0" opacity="0.2627450980392157" d="M 990.5 398 L 999 402.5 L 997.5 403 L 991.5 400 L 990.5 398 Z " /><path fill="rgb(212,224,225)" stroke="rgb(212,224,225)" stroke-width="0" opacity="0.2627450980392157" d="M 1020.5 408 L 1034 408.5 L 1020.5 409 L 1020.5 408 Z " /><path fill="rgb(212,224,225)" stroke="rgb(212,224,225)" stroke-width="0" opacity="0.2627450980392157" d="M 1019.5 434 L 1024 434.5 L 1019.5 435 L 1019.5 434 Z " /><path fill="rgb(212,224,225)" stroke="rgb(212,224,225)" stroke-width="0" opacity="0.2627450980392157" d="M 1264.5 622 L 1268 626.5 L 1266 625.5 L 1264.5 622 Z " /><path fill="rgb(212,224,225)" stroke="rgb(212,224,225)" stroke-width="0" opacity="0.2627450980392157" d="M 684.5 647 L 680 652.5 L 677.5 658 L 677 656.5 L 684.5 647 Z " /><path fill="rgb(212,224,225)" stroke="rgb(212,224,225)" stroke-width="0" opacity="0.2627450980392157" d="M 1275.5 652 L 1276 657.5 L 1275 657.5 L 1275.5 652 Z " /><path fill="rgb(212,224,225)" stroke="rgb(212,224,225)" stroke-width="0" opacity="0.2627450980392157" d="M 676.5 660 L 677 666.5 L 676 666.5 L 676.5 660 Z " /><path fill="rgb(212,224,225)" stroke="rgb(212,224,225)" stroke-width="0" opacity="0.2627450980392157" d="M 677.5 669 L 680 673.5 L 678 672.5 L 677.5 669 Z " /><path fill="rgb(212,224,225)" stroke="rgb(212,224,225)" stroke-width="0" opacity="0.2627450980392157" d="M 680.5 675 L 686 679.5 L 684.5 679 L 680.5 675 Z " /><path fill="rgb(212,224,225)" stroke="rgb(212,224,225)" stroke-width="0" opacity="0.2627450980392157" d="M 1271.5 675 L 1272 676.5 L 1269.5 681 L 1269 679.5 L 1271.5 675 Z " /><path fill="rgb(212,224,225)" stroke="rgb(212,224,225)" stroke-width="0" opacity="0.2627450980392157" d="M 1266.5 685 L 1266 686.5 L 1262.5 691 L 1265 687.5 L 1266.5 685 Z " /><path fill="rgb(212,224,225)" stroke="rgb(212,224,225)" stroke-width="0" opacity="0.2627450980392157" d="M 1250.5 701 L 1249.5 703 L 1247.5 704 L 1248.5 702 L 1250.5 701 Z " /><path fill="rgb(212,224,225)" stroke="rgb(212,224,225)" stroke-width="0" opacity="0.2627450980392157" d="M 1222.5 710 L 1228 710.5 L 1222.5 711 L 1222.5 710 Z " /><path fill="rgb(212,224,225)" stroke="rgb(212,224,225)" stroke-width="0" opacity="0.2627450980392157" d="M 1096.5 728 L 1097 734.5 L 1096 734.5 L 1096.5 728 Z " /><path fill="rgb(212,224,225)" stroke="rgb(212,224,225)" stroke-width="0" opacity="0.2627450980392157" d="M 1097.5 737 Q 1099.7 744.3 1105.5 748 L 1108 749.5 L 1106.5 749 L 1099 742.5 L 1097.5 737 Z " /><path fill="rgb(212,224,225)" stroke="rgb(212,224,225)" stroke-width="0" opacity="0.2627450980392157" d="M 865.5 743 L 866 747.5 L 865 747.5 L 865.5 743 Z " /><path fill="rgb(212,224,225)" stroke="rgb(212,224,225)" stroke-width="0" opacity="0.2627450980392157" d="M 1109.5 750 L 1117 752.5 L 1113.5 753 L 1109.5 751 L 1109.5 750 Z " /><path fill="rgb(212,224,225)" stroke="rgb(212,224,225)" stroke-width="0" opacity="0.2627450980392157" d="M 1147.5 752 L 1158 752.5 L 1155.5 754 Q 1153.8 751.3 1147.5 753 L 1147.5 752 Z " /><path fill="rgb(212,224,225)" stroke="rgb(212,224,225)" stroke-width="0" opacity="0.2627450980392157" d="M 863.5 777 L 864 782.5 L 863 782.5 L 863.5 777 Z " /><path fill="rgb(212,224,225)" stroke="rgb(212,224,225)" stroke-width="0" opacity="0.2627450980392157" d="M 862.5 797 L 863 803.5 L 862 803.5 L 862.5 797 Z " /><path fill="rgb(212,224,225)" stroke="rgb(212,224,225)" stroke-width="0" opacity="0.2627450980392157" d="M 1198.5 800 L 1199 812.5 L 1198 812.5 L 1198.5 800 Z " /><path fill="rgb(212,224,225)" stroke="rgb(212,224,225)" stroke-width="0" opacity="0.2627450980392157" d="M 861.5 825 L 862 835.5 L 861 835.5 L 861.5 825 Z " /><path fill="rgb(212,224,225)" stroke="rgb(212,224,225)" stroke-width="0" opacity="0.2627450980392157" d="M 1199.5 847 L 1200 856.5 L 1199 856.5 L 1199.5 847 Z " /><path fill="rgb(212,224,225)" stroke="rgb(212,224,225)" stroke-width="0" opacity="0.2627450980392157" d="M 860.5 889 L 861 1267.5 L 860 1267.5 L 860.5 889 Z " /><path fill="rgb(212,224,225)" stroke="rgb(212,224,225)" stroke-width="0" opacity="0.2627450980392157" d="M 1040.5 902 L 1045 904.5 L 1043.5 904 Q 1039.7 903.8 1040.5 902 Z " /><path fill="rgb(212,224,225)" stroke="rgb(212,224,225)" stroke-width="0" opacity="0.2627450980392157" d="M 1046.5 905 L 1053 910.5 L 1049.5 908 L 1046.5 905 Z " /><path fill="rgb(212,224,225)" stroke="rgb(212,224,225)" stroke-width="0" opacity="0.2627450980392157" d="M 1053.5 912 L 1057 916.5 L 1055 915.5 L 1053.5 912 Z " /><path fill="rgb(212,224,225)" stroke="rgb(212,224,225)" stroke-width="0" opacity="0.2627450980392157" d="M 1143.5 1280 L 1148 1287 L 1153 1290.5 L 1149.5 1288 L 1147 1286.5 L 1143.5 1280 Z " /><path fill="rgb(212,224,225)" stroke="rgb(212,224,225)" stroke-width="0" opacity="0.2627450980392157" d="M 1166.5 1295 L 1174 1295.5 L 1166.5 1296 L 1166.5 1295 Z " /><path fill="rgb(219,222,225)" stroke="rgb(219,222,225)" stroke-width="0" opacity="0.996078431372549" d="M 1018.5 277 L 1042 277.5 L 1018.5 278 L 1018.5 277 Z " /><path fill="rgb(219,222,225)" stroke="rgb(219,222,225)" stroke-width="0" opacity="0.996078431372549" d="M 993.5 278 L 1002 278.5 L 993.5 279 L 993.5 278 Z " /><path fill="rgb(219,222,225)" stroke="rgb(219,222,225)" stroke-width="0" opacity="0.996078431372549" d="M 1058.5 278 L 1066 278.5 L 1058.5 279 L 1058.5 278 Z " /><path fill="rgb(219,222,225)" stroke="rgb(219,222,225)" stroke-width="0" opacity="0.996078431372549" d="M 980.5 279 L 986 279.5 L 980.5 280 L 980.5 279 Z " /><path fill="rgb(219,222,225)" stroke="rgb(219,222,225)" stroke-width="0" opacity="0.996078431372549" d="M 1073.5 279 L 1080 279.5 L 1073.5 280 L 1073.5 279 Z " /><path fill="rgb(219,222,225)" stroke="rgb(219,222,225)" stroke-width="0" opacity="0.996078431372549" d="M 1084.5 280 L 1089 280.5 L 1084.5 281 L 1084.5 280 Z " /><path fill="rgb(219,222,225)" stroke="rgb(219,222,225)" stroke-width="0" opacity="0.996078431372549" d="M 1029.5 460 L 1144 647 L 1132.5 649 L 1102.5 651 L 1101.5 652 L 1092.5 652 L 1091.5 653 L 1082.5 653 L 1081.5 654 L 1072.5 654 L 1061.5 656 L 1051.5 656 L 1050.5 657 L 1041.5 657 L 1030.5 659 L 1030 462.5 L 1029.5 460 Z " /><path fill="rgb(219,222,225)" stroke="rgb(219,222,225)" stroke-width="0" opacity="0.996078431372549" d="M 739.5 630 L 740 681.5 L 739 681.5 L 739.5 630 Z " /><path fill="rgb(219,222,225)" stroke="rgb(219,222,225)" stroke-width="0" opacity="0.996078431372549" d="M 1020.5 659 L 1025 659.5 L 1020.5 660 L 1020.5 659 Z " /><path fill="rgb(219,222,225)" stroke="rgb(219,222,225)" stroke-width="0" opacity="0.996078431372549" d="M 1010.5 660 L 1016 660.5 L 1010.5 661 L 1010.5 660 Z " /><path fill="rgb(219,222,225)" stroke="rgb(219,222,225)" stroke-width="0" opacity="0.996078431372549" d="M 986.5 682 L 987 688.5 L 986 688.5 L 986.5 682 Z " /><path fill="rgb(219,222,225)" stroke="rgb(219,222,225)" stroke-width="0" opacity="0.996078431372549" d="M 1007.5 710 Q 1013 708.5 1014.5 711 L 1109 711.5 L 1100 718.5 Q 1095.6 724.1 1096 734.5 Q 1098 744.5 1105.5 749 L 1113.5 753 L 1153.5 753 L 1162.5 755 Q 1177.1 759.9 1186 770.5 Q 1193.4 779.1 1197 791.5 L 1198 796.5 L 1198 826.5 L 1199 827.5 L 1199 867.5 L 1200 868.5 L 1200 1271.5 Q 1197.3 1282.8 1189.5 1289 L 1176.5 1295 L 1163.5 1295 L 1153.5 1291 L 1148 1287 L 1142 1277.5 L 1139 1266.5 L 1133 1236.5 L 1129 1223.5 L 1120 1180.5 L 1116 1167.5 L 1107 1124.5 L 1103 1111.5 L 1094 1068.5 L 1090 1055.5 L 1084 1025.5 L 1061 930.5 L 1061 926.5 Q 1057.9 914.1 1049.5 907 L 1035.5 900 L 1023.5 900 Q 1010.8 903.3 1004 912.5 Q 998.9 919.4 997 929.5 L 997 933.5 L 978 1011.5 L 976 1024.5 L 964 1072.5 L 964 1076.5 L 959 1093.5 L 957 1106.5 L 944 1158.5 L 944 1162.5 L 941 1171.5 L 941 1175.5 L 938 1184.5 L 938 1188.5 L 935 1197.5 L 935 1201.5 L 925 1240.5 L 918 1274.5 Q 915.2 1283.7 908.5 1289 L 896.5 1295 L 883.5 1295 Q 871.9 1292.1 866 1283.5 L 861 1271.5 L 861 846.5 L 861 844.5 L 862 841.5 L 862 839.5 L 862 811.5 L 863 810.5 L 863 789.5 L 864 787.5 L 864 785.5 L 864 770.5 L 865 769.5 L 865 767.5 L 865 748.5 L 866 747.5 L 866 735.5 L 867 734.5 L 867 724.5 L 868 723.5 Q 867.3 715.5 869 711 L 1006.5 711 L 1007.5 710 Z " /></svg>